<?xml version="1.0" encoding="utf-8"?>
<!-- Generator: Adobe Illustrator 21.1.0, SVG Export Plug-In . SVG Version: 6.00 Build 0)  -->
<svg version="1.1" id="Layer_2" xmlns="http://www.w3.org/2000/svg" xmlns:xlink="http://www.w3.org/1999/xlink" x="0px" y="0px"
	 viewBox="0 0 319 85" style="enable-background:new 0 0 319 85;" xml:space="preserve">
<path d="M273,20.5L249,6.7l1-1.7l24,13.8L273,20.5z M313,20.5L289,6.7l1-1.7l24,13.8L313,20.5z M273,80l-24-13.8l1-1.7l24,13.8
	L273,80z M313,80l-24-13.8l1-1.7l24,13.8L313,80z M289,48.6l24-13.8l1,1.7l-24,13.8L289,48.6z M249,48.6l24-13.8l1,1.7l-24,13.8
	L249,48.6z M192,20.5L168,6.7l1-1.7l24,13.8L192,20.5z M232,20.5L208,6.7l1-1.7l24,13.8L232,20.5z M192,80l-24-13.8l1-1.7l24,13.8
	L192,80z M232,80l-24-13.8l1-1.7l24,13.8L232,80z M208,48.6l24-13.8l1,1.7l-24,13.8L208,48.6z M168,48.6l24-13.8l1,1.7l-24,13.8
	L168,48.6z M111,20.5L87,6.7L88,5l24,13.8L111,20.5z M151,20.5L127,6.7l1-1.7l24,13.8L151,20.5z M111,80L87,66.2l1-1.7l24,13.8
	L111,80z M151,80l-24-13.8l1-1.7l24,13.8L151,80z M127,48.6l24-13.8l1,1.7l-24,13.8L127,48.6z M87,48.6l24-13.8l1,1.7L88,50.3
	L87,48.6z M29,20.5L5,6.7L6,5l24,13.8L29,20.5z M69,20.5L45,6.7L46,5l24,13.8L69,20.5z M29,80L5,66.2l1-1.7l24,13.8L29,80z M69,80
	L45,66.2l1-1.7l24,13.8L69,80z M45,48.6l24-13.8l1,1.7L46,50.3L45,48.6z M5,48.6l24-13.8l1,1.7L6,50.3L5,48.6z"/>
</svg>
