<?xml version="1.0" encoding="utf-8"?>
<!-- Generator: Adobe Illustrator 21.1.0, SVG Export Plug-In . SVG Version: 6.00 Build 0)  -->
<svg version="1.1" id="Layer_1" xmlns="http://www.w3.org/2000/svg" xmlns:xlink="http://www.w3.org/1999/xlink" x="0px" y="0px"
	 viewBox="0 0 570.4 239.4" style="enable-background:new 0 0 570.4 239.4;" xml:space="preserve">
<style type="text/css">
	.st0{fill:#4EC17B;}
</style>
<g>
	<g>
		<g>
			<path class="st0" d="M175,67.7h41.6v10h-29.1v20h22.9v9.7h-22.9v27.5H175V67.7z"/>
			<path class="st0" d="M219.1,110.8v-0.8c0-15.2,10.8-25.4,25.3-25.4c14.4,0,25.2,10.1,25.2,25.1v0.8c0,15.3-10.8,25.3-25.3,25.3
				C229.8,135.8,219.1,125.8,219.1,110.8z M257.9,110.7V110c0-10.2-5.1-16.4-13.5-16.4c-8.5,0-13.6,6.1-13.6,16.3v0.8
				c0,10.1,5,16.4,13.6,16.4C252.9,127,257.9,120.7,257.9,110.7z"/>
			<path class="st0" d="M277.5,117.2V85.7h11.4v30.2c0,7.4,3.1,10.8,9.7,10.8c6.1,0,11.5-3.9,11.5-11.7V85.7h11.4v49.2H310v-7.7
				c-2.4,4.8-7.6,8.6-15.6,8.6C284.7,135.8,277.5,130.3,277.5,117.2z"/>
			<path class="st0" d="M332.9,85.7h11.4v7.8c2.4-4.8,7.8-8.8,15.9-8.8c9.9,0,16.8,5.7,16.8,19.3v30.9h-11.4V105
				c0-7.4-3-10.8-9.8-10.8c-6.4,0-11.6,3.9-11.6,11.7v28.9h-11.4V85.7z"/>
			<path class="st0" d="M385,111.1v-0.8c0-15.7,9.3-25.7,22.1-25.7c8,0,13,3.7,15.7,8.6V63h11.4v71.9h-11.4v-8.3
				c-2.6,4.9-8.9,9.2-16.2,9.2C394.3,135.8,385,127.1,385,111.1z M423.2,110.6v-0.8c0-10.8-5-16.2-13.3-16.2
				c-8.4,0-13.3,5.8-13.3,16.4v0.8c0,10.8,5.5,16,12.8,16C417.4,126.8,423.2,121.6,423.2,110.6z"/>
			<path class="st0" d="M442.5,110.8v-0.8c0-15.2,10.4-25.4,24.4-25.4c12.2,0,23.2,7.2,23.2,24.8v3.3h-36
				c0.4,9.3,5.1,14.6,13.5,14.6c6.9,0,10.4-2.7,11.3-7.5h11c-1.6,10.3-10,16-22.6,16C453,135.8,442.5,126.3,442.5,110.8z
				 M478.9,105.2C478.4,96.7,474,93,467,93c-6.9,0-11.5,4.6-12.6,12.2H478.9z"/>
			<path class="st0" d="M498.5,85.7h11.4V95c3.1-6.2,7.7-9.9,16-10v10.6c-10,0.1-16,3.3-16,13.7v25.6h-11.4V85.7z"/>
			<path class="st0" d="M530.1,119.6h10.7c0.6,5,3.1,7.9,9.8,7.9c6.1,0,8.8-2.2,8.8-6.3c0-4-3.3-5.5-10.5-6.8
				c-13-2.1-17.8-5.7-17.8-14.9c0-9.9,9.2-14.8,18.4-14.8c10.1,0,18,3.8,19.3,14.8h-10.5c-0.9-4.5-3.5-6.6-8.7-6.6
				c-4.9,0-7.8,2.3-7.8,5.8c0,3.6,2.3,5,10.1,6.3c11.6,1.8,18.4,4.6,18.4,15c0,10-7.1,15.7-19.6,15.7
				C538,135.8,530.6,130,530.1,119.6z"/>
			<path class="st0" d="M175,154.2h21.6c15,0,24.9,6.7,24.9,20.8v0.4c0,14.2-10.2,20.5-24.6,20.5h-9.4v25.6H175V154.2z M196.7,186.8
				c8.3,0,12.7-4,12.7-11.5V175c0-8-4.7-11.1-12.7-11.1h-9.1v22.9H196.7z"/>
			<path class="st0" d="M229.7,149.5h11.4v71.9h-11.4V149.5z"/>
			<path class="st0" d="M249.8,197.3v-0.8c0-15.2,10.4-25.4,24.4-25.4c12.2,0,23.2,7.2,23.2,24.8v3.3h-36
				c0.4,9.3,5.1,14.6,13.5,14.6c6.9,0,10.4-2.7,11.3-7.5h11c-1.6,10.3-10,16-22.6,16C260.2,222.3,249.8,212.8,249.8,197.3z
				 M286.1,191.7c-0.6-8.5-4.9-12.2-11.9-12.2c-6.9,0-11.5,4.6-12.6,12.2H286.1z"/>
			<path class="st0" d="M302.5,197.6v-0.8c0-15.7,9.3-25.7,22.1-25.7c8,0,13,3.7,15.7,8.6v-30.3h11.4v71.9h-11.4v-8.3
				c-2.6,4.9-8.9,9.2-16.2,9.2C311.8,222.3,302.5,213.6,302.5,197.6z M340.7,197.1v-0.8c0-10.8-5-16.2-13.3-16.2
				c-8.4,0-13.3,5.8-13.3,16.4v0.8c0,10.8,5.5,16,12.8,16C334.8,213.3,340.7,208,340.7,197.1z"/>
			<path class="st0" d="M360.6,223.1H372c0.9,4.9,4.7,7.7,12.1,7.7c8.8,0,13.7-4.4,13.7-13.3v-7.2c-2.7,4.7-8.8,9.1-16.1,9.1
				c-12.3,0-21.8-9.2-21.8-23.4v-0.7c0-13.8,9.4-24.2,22.1-24.2c8.1,0,13,3.7,15.8,8.6v-7.5h11.4v45.5c-0.1,14.5-9.8,21.7-25,21.7
				C368.8,239.4,361.9,232.5,360.6,223.1z M398.3,195.6V195c0-9.3-5.1-14.9-13.3-14.9c-8.5,0-13.3,6.1-13.3,15v0.8
				c0,9.1,5.6,14.8,13,14.8C392.5,210.7,398.3,205,398.3,195.6z"/>
			<path class="st0" d="M417.6,197.3v-0.8c0-15.2,10.4-25.4,24.4-25.4c12.2,0,23.2,7.2,23.2,24.8v3.3h-36
				c0.4,9.3,5.1,14.6,13.5,14.6c6.9,0,10.4-2.7,11.3-7.5h11c-1.6,10.3-10,16-22.6,16C428.1,222.3,417.6,212.8,417.6,197.3z
				 M454,191.7c-0.6-8.5-4.9-12.2-11.9-12.2c-6.9,0-11.5,4.6-12.6,12.2H454z"/>
		</g>
	</g>
	<g>
		<polygon class="st0" points="31.5,67.5 0,85.7 0,112 39.8,89 39.8,46 0,23 0,49.3 		"/>
		<polygon class="st0" points="62.6,85.5 94.1,103.6 116.8,90.5 77,67.5 39.9,89 39.9,134.9 62.6,121.8 		"/>
		<polygon class="st0" points="62.6,49.5 62.6,13.1 39.9,0 39.9,46 77,67.5 116.9,44.5 94.1,31.3 		"/>
	</g>
</g>
</svg>
