<svg xmlns="http://www.w3.org/2000/svg"  viewBox="0 0 319 116">
<style type="text/css">.st0{fill:#ffffff;}</style>
<path class="st0" d="M273,19.1L249,5.3l1-1.7l24,13.8L273,19.1z M313,19.1L289,5.3l1-1.7l24,13.8L313,19.1z M273,78.6l-24-13.8
	l1-1.7l24,13.8L273,78.6z M313,78.6l-24-13.8l1-1.7l24,13.8L313,78.6z M289,47.2l24-13.8l1,1.7l-24,13.8L289,47.2z M249,47.2
	l24-13.8l1,1.7l-24,13.8L249,47.2z M192,19.1L168,5.3l1-1.7l24,13.8L192,19.1z M232,19.1L208,5.3l1-1.7l24,13.8L232,19.1z M192,78.6
	l-24-13.8l1-1.7l24,13.8L192,78.6z M232,78.6l-24-13.8l1-1.7l24,13.8L232,78.6z M208,47.2l24-13.8l1,1.7l-24,13.8L208,47.2z
	 M168,47.2l24-13.8l1,1.7l-24,13.8L168,47.2z M111,19.1L87,5.3l1-1.7l24,13.8L111,19.1z M151,19.1L127,5.3l1-1.7l24,13.8L151,19.1z
	 M111,78.6L87,64.8l1-1.7l24,13.8L111,78.6z M151,78.6l-24-13.8l1-1.7l24,13.8L151,78.6z M127,47.2l24-13.8l1,1.7l-24,13.8L127,47.2
	z M87,47.2l24-13.8l1,1.7L88,48.9L87,47.2z M29,19.1L5,5.3l1-1.7l24,13.8L29,19.1z M69,19.1L45,5.3l1-1.7l24,13.8L69,19.1z M29,78.6
	L5,64.8l1-1.7l24,13.8L29,78.6z M69,78.6L45,64.8l1-1.7l24,13.8L69,78.6z M45,47.2l24-13.8l1,1.7L46,48.9L45,47.2z M5,47.2l24-13.8
	l1,1.7L6,48.9L5,47.2z M289,106.2l24-13.8l1,1.7l-24,13.8L289,106.2z M249,106.2l24-13.8l1,1.7l-24,13.8L249,106.2z M208,106.2
	l24-13.8l1,1.7l-24,13.8L208,106.2z M168,106.2l24-13.8l1,1.7l-24,13.8L168,106.2z M127,106.2l24-13.8l1,1.7l-24,13.8L127,106.2z
	 M87,106.2l24-13.8l1,1.7l-24,13.8L87,106.2z M45,106.2l24-13.8l1,1.7l-24,13.8L45,106.2z M5,106.2l24-13.8l1,1.7L6,107.9L5,106.2z"
	/>
</svg>