<?xml version="1.0" standalone="no"?>
<!DOCTYPE svg PUBLIC "-//W3C//DTD SVG 20010904//EN"
 "http://www.w3.org/TR/2001/REC-SVG-20010904/DTD/svg10.dtd">
<svg version="1.0" xmlns="http://www.w3.org/2000/svg"
 width="700.000000pt" height="700.000000pt" viewBox="0 0 700.000000 700.000000"
 preserveAspectRatio="xMidYMid meet">
<metadata>
Created by potrace 1.11, written by Peter Selinger 2001-2013
</metadata>
<g transform="translate(0.000000,700.000000) scale(0.100000,-0.100000)"
fill="#000000" stroke="none">
<path d="M3447 6184 c-1 -1 -51 -4 -112 -7 -140 -8 -271 -25 -395 -53 -14 -3
-38 -8 -55 -11 -60 -10 -263 -75 -375 -120 -364 -145 -696 -369 -955 -647
-110 -118 -124 -135 -201 -236 -224 -294 -409 -700 -480 -1055 -2 -11 -6 -31
-9 -45 -80 -406 -59 -854 59 -1263 83 -287 251 -623 426 -851 25 -32 54 -70
65 -85 65 -87 276 -299 385 -387 212 -172 442 -307 705 -417 61 -25 299 -102
345 -111 14 -3 68 -14 121 -25 52 -12 111 -23 130 -25 83 -11 128 -16 184 -21
69 -7 370 -7 430 0 179 19 216 25 394 61 365 75 854 323 1145 582 48 43 238
234 279 280 276 312 514 793 593 1197 2 11 6 31 9 45 4 23 7 38 19 118 32 201
37 541 11 712 -2 14 -7 45 -10 70 -6 38 -16 92 -41 220 -18 91 -86 301 -136
420 -96 226 -241 474 -367 626 -14 17 -42 51 -61 75 -60 76 -271 281 -374 363
-372 297 -865 511 -1296 562 -30 3 -58 8 -61 10 -9 5 -366 23 -372 18z"/>
</g>
</svg>
